<svg id="eponqb4sxnj1" xmlns="http://www.w3.org/2000/svg" xmlns:xlink="http://www.w3.org/1999/xlink" viewBox="0 0 1440 1024" shape-rendering="geometricPrecision" text-rendering="geometricPrecision"><style><![CDATA[#eponqb4sxnj3 {animation: eponqb4sxnj3_c_o 3000ms linear 1 normal forwards}@keyframes eponqb4sxnj3_c_o { 0% {opacity: 0;animation-timing-function: cubic-bezier(0.695000,0.455000,0.770000,1.005000)} 16.666667% {opacity: 1} 100% {opacity: 1} }#eponqb4sxnj57_to {animation: eponqb4sxnj57_to__to 3000ms linear 1 normal forwards}@keyframes eponqb4sxnj57_to__to { 0% {transform: translate(1776.500000px,550px)} 6.666667% {transform: translate(1776.500000px,550px);animation-timing-function: cubic-bezier(0.895000,0.030000,0.685000,0.220000)} 23.333333% {transform: translate(1131.500000px,550px)} 100% {transform: translate(1131.500000px,550px)} }#eponqb4sxnj88_to {animation: eponqb4sxnj88_to__to 3000ms linear 1 normal forwards}@keyframes eponqb4sxnj88_to__to { 0% {transform: translate(-64px,533.500000px)} 6.666667% {transform: translate(-64px,533.500000px);animation-timing-function: cubic-bezier(0.550000,0.055000,0.675000,0.190000)} 23.333333% {transform: translate(290px,533.500000px)} 100% {transform: translate(290px,533.500000px)} }#eponqb4sxnj105_to {animation: eponqb4sxnj105_to__to 3000ms linear 1 normal forwards}@keyframes eponqb4sxnj105_to__to { 0% {transform: translate(1736.632263px,635.753342px)} 16.666667% {transform: translate(1736.632263px,635.753342px);animation-timing-function: cubic-bezier(0.755000,0.050000,0.855000,0.060000)} 40% {transform: translate(883.632263px,635.753342px)} 50% {transform: translate(882.632263px,635.753342px)} 63.333333% {transform: translate(837.612737px,635.753342px)} 76.666667% {transform: translate(881.092737px,646.569897px)} 90% {transform: translate(829.132263px,646.569897px)} 100% {transform: translate(841.137737px,646.569897px)} }#eponqb4sxnj118_to {animation: eponqb4sxnj118_to__to 3000ms linear 1 normal forwards}@keyframes eponqb4sxnj118_to__to { 0% {transform: translate(-138px,766.121063px)} 16.666667% {transform: translate(-138px,766.121063px);animation-timing-function: cubic-bezier(0.755000,0.050000,0.855000,0.060000)} 40% {transform: translate(643px,766.121063px);animation-timing-function: cubic-bezier(0.755000,0.050000,0.855000,0.060000)} 50% {transform: translate(644px,766.121063px)} 63.333333% {transform: translate(598.980474px,766.121063px)} 76.666667% {transform: translate(642.460474px,776.937618px)} 90% {transform: translate(590.500000px,776.937618px)} 100% {transform: translate(602.505474px,776.937618px)} }]]></style><defs><linearGradient id="eponqb4sxnj7-fill" x1="720" y1="0" x2="720" y2="489" spreadMethod="pad" gradientUnits="userSpaceOnUse"><stop id="eponqb4sxnj7-fill-0" offset="0%" stop-color="rgba(0,0,0,0.28)"/><stop id="eponqb4sxnj7-fill-1" offset="100%" stop-color="rgba(255,255,255,0)"/></linearGradient></defs><g id="eponqb4sxnj2"><g id="eponqb4sxnj3" style="mix-blend-mode:overlay" opacity="0" paint-order="stroke fill markers"><rect id="eponqb4sxnj4" width="1440" height="1024" rx="0" ry="0" fill="rgb(255,255,255)" stroke="none" stroke-width="1"/><rect id="eponqb4sxnj5" width="1440" height="611" rx="0" ry="0" fill="rgb(49,65,98)" stroke="none" stroke-width="1"/><rect id="eponqb4sxnj6" width="1440" height="489" rx="0" ry="0" transform="matrix(1 0 0 1 0 599)" fill="rgb(218,71,71)" stroke="none" stroke-width="1"/><rect id="eponqb4sxnj7" width="1440" height="489" rx="0" ry="0" transform="matrix(1 0 0 1 0 599)" fill="url(#eponqb4sxnj7-fill)" stroke="none" stroke-width="1"/><g id="eponqb4sxnj8"><rect id="eponqb4sxnj9" width="294" height="441" rx="0" ry="0" transform="matrix(1 0 0 1 102 59)" fill="rgb(15,22,44)" stroke="rgb(51,142,146)" stroke-width="4"/><rect id="eponqb4sxnj10" width="290" height="15.173600" rx="0" ry="0" transform="matrix(1 0 0 1 104 191.49299999999999)" fill="rgb(51,142,146)" stroke="none" stroke-width="1"/><rect id="eponqb4sxnj11" width="290" height="15.173600" rx="0" ry="0" transform="matrix(1 0 0 1 104 353.34500000000003)" fill="rgb(51,142,146)" stroke="none" stroke-width="1"/><g id="eponqb4sxnj12" mask="url(#eponqb4sxnj15)"><g id="eponqb4sxnj13"><path id="eponqb4sxnj14" d="M371.632000,24.187200L188,258L201.186000,268.356000L384.819000,34.543600L371.632000,24.187200ZM397.651000,61L67.908600,480.850000L116.985000,519.393000L446.728000,99.543600L397.651000,61Z" clip-rule="evenodd" fill="rgb(255,255,255)" fill-opacity="0.5" fill-rule="evenodd" stroke="none" stroke-width="1"/></g><mask id="eponqb4sxnj15" mask-type="alpha"><rect id="eponqb4sxnj16" width="290" height="432" rx="0" ry="0" transform="matrix(1 0 0 1 104 61)" fill="rgb(15,98,103)" stroke="none" stroke-width="1"/><rect id="eponqb4sxnj17" width="290" height="15" rx="0" ry="0" transform="matrix(1 0 0 1 104 190)" fill="rgb(51,142,146)" stroke="none" stroke-width="1"/><rect id="eponqb4sxnj18" width="290" height="15" rx="0" ry="0" transform="matrix(1 0 0 1 104 350)" fill="rgb(51,142,146)" stroke="none" stroke-width="1"/></mask></g><path id="eponqb4sxnj19" d="M73,493L424,493C424,505.703000,413.703000,516,401,516L96,516C83.297500,516,73,505.703000,73,493Z" fill="rgb(240,105,70)" stroke="none" stroke-width="1"/></g><g id="eponqb4sxnj20"><path id="eponqb4sxnj21" d="M853.937000,339L821.037000,304.867000L804,284.280000L1184.110000,284.280000L1227,339L853.937000,339Z" opacity="0.2" fill="rgb(220,56,36)" stroke="none" stroke-width="1"/><path id="eponqb4sxnj22" d="M804,284.280000L1184.700000,284.280000C1184.700000,296.248000,1175,305.951000,1163.030000,305.951000L825.671000,305.951000C813.703000,305.951000,804,296.248000,804,284.280000Z" fill="rgb(149,16,0)" stroke="none" stroke-width="1"/><rect id="eponqb4sxnj23" width="23.500000" height="133.280000" rx="0" ry="0" transform="matrix(1 0 0 1 1144.75000000000000 151)" fill="rgb(243,157,133)" stroke="none" stroke-width="1"/><rect id="eponqb4sxnj24" width="9.400000" height="87.769500" rx="4.700000" ry="4.700000" transform="matrix(1 0 0 1 1151.79999999999995 177.00600000000000)" fill="rgb(246,235,226)" stroke="none" stroke-width="1"/><rect id="eponqb4sxnj25" width="18.800000" height="98.605200" rx="0" ry="0" transform="matrix(1 0 0 1 1029.59999999999991 185.67400000000001)" fill="rgb(149,16,0)" stroke="none" stroke-width="1"/><rect id="eponqb4sxnj26" width="7.050000" height="35.757900" rx="3.525000" ry="3.525000" transform="matrix(1 0 0 1 1035.47000000000003 194.34299999999999)" fill="rgb(246,235,226)" stroke="none" stroke-width="1"/><rect id="eponqb4sxnj27" width="7.050000" height="35.757900" rx="3.525000" ry="3.525000" transform="matrix(1 0 0 1 1035.47000000000003 237.68600000000001)" fill="rgb(246,235,226)" stroke="none" stroke-width="1"/><rect id="eponqb4sxnj28" width="97.525000" height="46.593700" rx="0" ry="0" transform="matrix(1 0 0 1 1048.40000000000009 237.68600000000001)" fill="rgb(51,142,146)" stroke="none" stroke-width="1"/><rect id="eponqb4sxnj29" width="7.050000" height="28.172900" rx="3.525000" ry="3.525000" transform="matrix(1 0 0 1 1070.72000000000003 245.27099999999999)" fill="rgb(246,235,226)" stroke="none" stroke-width="1"/><rect id="eponqb4sxnj30" width="7.050000" height="28.172900" rx="3.525000" ry="3.525000" transform="matrix(1 0 0 1 1093.04999999999995 245.27099999999999)" fill="rgb(246,235,226)" stroke="none" stroke-width="1"/><rect id="eponqb4sxnj31" width="7.050000" height="28.172900" rx="3.525000" ry="3.525000" transform="matrix(1 0 0 1 1114.20000000000005 245.27099999999999)" fill="rgb(246,235,226)" stroke="none" stroke-width="1"/><rect id="eponqb4sxnj32" width="77.550000" height="20.587900" rx="0" ry="0" transform="matrix(1 0 0 1 1048.40000000000009 217.09800000000001)" fill="rgb(242,103,68)" stroke="none" stroke-width="1"/><rect id="eponqb4sxnj33" width="61.100000" height="7.585010" rx="3.792510" ry="3.792510" transform="matrix(1 0 0 1 1056.61999999999989 223.59899999999999)" fill="rgb(246,235,226)" stroke="none" stroke-width="1"/><rect id="eponqb4sxnj34" width="123.375000" height="71.515900" rx="0" ry="0" transform="matrix(1 0 0 1 906.22500000000002 212.76400000000001)" fill="rgb(97,174,186)" stroke="none" stroke-width="1"/><ellipse id="eponqb4sxnj35" rx="24.675000" ry="22.755000" transform="matrix(1 0 0 1 968.50000000000000 260.44099999999997)" fill="rgb(43,3,3)" stroke="none" stroke-width="1"/><ellipse id="eponqb4sxnj36" rx="8.225000" ry="7.585010" transform="matrix(1 0 0 1 968.50000000000000 260.44099999999997)" fill="rgb(196,196,196)" stroke="none" stroke-width="1"/><rect id="eponqb4sxnj37" width="35.250000" height="7.585010" rx="3.792510" ry="3.792510" transform="matrix(1 0 0 1 913.27499999999998 223.59899999999999)" fill="rgb(246,235,226)" stroke="none" stroke-width="1"/><rect id="eponqb4sxnj38" width="7.050000" height="49.844400" rx="3.525000" ry="3.525000" transform="matrix(1 0 0 1 1008.45000000000005 231.18400000000000)" fill="rgb(246,235,226)" stroke="none" stroke-width="1"/><ellipse id="eponqb4sxnj39" rx="23.500000" ry="21.671500" transform="matrix(1 0 0 1 852.17499999999995 243.10400000000001)" fill="rgb(147,219,197)" stroke="none" stroke-width="1"/><ellipse id="eponqb4sxnj40" rx="23.500000" ry="21.671500" transform="matrix(1 0 0 1 852.17499999999995 212.76400000000001)" fill="rgb(147,219,197)" stroke="none" stroke-width="1"/><rect id="eponqb4sxnj41" width="4.700000" height="46.593700" rx="2.350000" ry="2.350000" transform="matrix(1 0 0 1 849.82500000000005 207.34600000000000)" fill="rgb(48,140,146)" stroke="none" stroke-width="1"/><rect id="eponqb4sxnj42" width="4.494540" height="17.051200" rx="2.247270" ry="2.247270" transform="matrix(0.68430500000000 0.72919600000000 -0.78160000000000 0.62377900000000 863.15200000000004 205.17900000000000)" fill="rgb(48,140,146)" stroke="none" stroke-width="1"/><rect id="eponqb4sxnj43" width="4.525010" height="16.937600" rx="2.262500" ry="2.262500" transform="matrix(-0.74276900000000 0.66954800000000 -0.72737900000000 -0.68623600000000 853.75599999999997 243.89099999999999)" fill="rgb(48,140,146)" stroke="none" stroke-width="1"/><rect id="eponqb4sxnj44" width="62.275000" height="24.922200" rx="0" ry="0" transform="matrix(1 0 0 1 821.62500000000000 259.35700000000003)" fill="rgb(240,105,70)" stroke="none" stroke-width="1"/><rect id="eponqb4sxnj45" width="69.325000" height="6.501440" rx="3.250720" ry="3.250720" transform="matrix(1 0 0 1 818.10000000000002 252.85599999999999)" fill="rgb(240,105,70)" stroke="none" stroke-width="1"/></g><g id="eponqb4sxnj46"><rect id="eponqb4sxnj47" width="14" height="293" rx="0" ry="0" transform="matrix(1 0 0 1 514 362)" fill="rgb(240,105,70)" stroke="none" stroke-width="1"/><rect id="eponqb4sxnj48" width="118" height="9" rx="4.500000" ry="4.500000" transform="matrix(1 0 0 1 462 655)" fill="rgb(184,97,84)" stroke="none" stroke-width="1"/><line id="eponqb4sxnj49" x1="464.500000" y1="347" x2="464.500000" y2="428" fill="none" stroke="rgb(0,0,0)" stroke-width="5"/><ellipse id="eponqb4sxnj50" rx="6.500000" ry="9.500000" transform="matrix(1 0 0 1 464.50000000000000 429.50000000000000)" fill="rgb(0,0,0)" stroke="none" stroke-width="1"/><rect id="eponqb4sxnj51" width="181" height="97" rx="0" ry="0" transform="matrix(1 0 0 1 431 269.00299999999999)" fill="rgb(249,243,239)" stroke="none" stroke-width="1"/><path id="eponqb4sxnj52" d="M442,269.003000L442,366.003000" fill="none" stroke="rgb(0,0,0)" stroke-width="3"/><line id="eponqb4sxnj53" x1="478.500000" y1="269.003000" x2="478.500000" y2="366.003000" fill="none" stroke="rgb(0,0,0)" stroke-width="3"/><line id="eponqb4sxnj54" x1="539.500000" y1="269.003000" x2="539.500000" y2="366.003000" fill="none" stroke="rgb(0,0,0)" stroke-width="3"/><line id="eponqb4sxnj55" x1="603.016000" y1="366.005000" x2="603.016000" y2="269" fill="none" stroke="rgb(0,0,0)" stroke-width="3"/><line id="eponqb4sxnj56" x1="589.500000" y1="269.003000" x2="589.500000" y2="366.003000" fill="none" stroke="rgb(0,0,0)" stroke-width="3"/></g></g><g id="eponqb4sxnj57_to" transform="translate(1776.500000,550)"><g id="eponqb4sxnj57" transform="translate(-1131.500000,-550)"><path id="eponqb4sxnj58" d="M855,607L1408,607C1408,636.161000,1384.360000,659.800000,1355.200000,659.800000L907.800000,659.800000C878.639000,659.800000,855,636.161000,855,607Z" fill="rgb(63,79,113)" stroke="none" stroke-width="1"/><rect id="eponqb4sxnj59" width="551.785000" height="36" rx="0" ry="0" transform="matrix(1 0 0 1 856.21500000000003 571)" fill="rgb(246,235,226)" stroke="none" stroke-width="1"/><path id="eponqb4sxnj60" d="M909.692000,493C909.692000,459.863000,936.555000,433,969.692000,433L1294.520000,433C1327.660000,433,1354.520000,459.863000,1354.520000,493L1354.520000,571L909.692000,571L909.692000,493Z" fill="rgb(218,71,71)" stroke="none" stroke-width="1"/><rect id="eponqb4sxnj61" width="388.923000" height="13.200000" rx="0" ry="0" transform="matrix(1 0 0 1 936.43100000000004 557.79999999999995)" opacity="0.5" fill="rgb(210,210,209)" stroke="none" stroke-width="1"/><path id="eponqb4sxnj62" d="M856.215000,537C856.215000,509.386000,878.601000,487,906.215000,487L947.877000,487C952.295000,487,955.877000,490.582000,955.877000,495L955.877000,563C955.877000,567.418000,952.295000,571,947.877000,571L864.215000,571C859.797000,571,856.215000,567.418000,856.215000,563L856.215000,537Z" fill="rgb(56,12,12)" stroke="none" stroke-width="1"/><path id="eponqb4sxnj63" d="M856.215000,537C856.215000,509.386000,878.601000,487,906.215000,487L928.431000,487C932.849000,487,936.431000,490.582000,936.431000,495L936.431000,552.200000C936.431000,556.618000,932.849000,560.200000,928.431000,560.200000L864.215000,560.200000C859.797000,560.200000,856.215000,556.618000,856.215000,552.200000L856.215000,537Z" fill="rgb(149,16,0)" stroke="none" stroke-width="1"/><rect id="eponqb4sxnj64" width="4.861540" height="37.200000" rx="2.430770" ry="2.430770" transform="matrix(1 0 0 1 880.52300000000002 512.20000000000005)" fill="rgb(240,105,70)" stroke="none" stroke-width="1"/><rect id="eponqb4sxnj65" width="4.861540" height="37.200000" rx="2.430770" ry="2.430770" transform="matrix(1 0 0 1 892.67700000000002 512.20000000000005)" fill="rgb(240,105,70)" stroke="none" stroke-width="1"/><rect id="eponqb4sxnj66" width="4.861540" height="37.200000" rx="2.430770" ry="2.430770" transform="matrix(1 0 0 1 904.83100000000002 512.20000000000005)" fill="rgb(240,105,70)" stroke="none" stroke-width="1"/><rect id="eponqb4sxnj67" width="4.861540" height="37.200000" rx="2.430770" ry="2.430770" transform="matrix(1 0 0 1 916.98500000000001 512.20000000000005)" fill="rgb(240,105,70)" stroke="none" stroke-width="1"/><path id="eponqb4sxnj68" d="M1408,537C1408,509.386000,1385.610000,487,1358,487L1316.340000,487C1311.920000,487,1308.340000,490.582000,1308.340000,495L1308.340000,563C1308.340000,567.418000,1311.920000,571,1316.340000,571L1400,571C1404.420000,571,1408,567.418000,1408,563L1408,537Z" fill="rgb(56,12,12)" stroke="none" stroke-width="1"/><path id="eponqb4sxnj69" d="M1408,537C1408,509.386000,1385.610000,487,1358,487L1335.780000,487C1331.370000,487,1327.780000,490.582000,1327.780000,495L1327.780000,552.200000C1327.780000,556.618000,1331.370000,560.200000,1335.780000,560.200000L1400,560.200000C1404.420000,560.200000,1408,556.618000,1408,552.200000L1408,537Z" fill="rgb(149,16,0)" stroke="none" stroke-width="1"/><rect id="eponqb4sxnj70" width="4.861540" height="37.200000" rx="2.430770" ry="2.430770" transform="matrix(-1 0 0 1 1383.69000000000005 512.20000000000005)" fill="rgb(240,105,70)" stroke="none" stroke-width="1"/><rect id="eponqb4sxnj71" width="4.861540" height="37.200000" rx="2.430770" ry="2.430770" transform="matrix(-1 0 0 1 1371.53999999999996 512.20000000000005)" fill="rgb(240,105,70)" stroke="none" stroke-width="1"/><rect id="eponqb4sxnj72" width="4.861540" height="37.200000" rx="2.430770" ry="2.430770" transform="matrix(-1 0 0 1 1359.38000000000011 512.20000000000005)" fill="rgb(240,105,70)" stroke="none" stroke-width="1"/><rect id="eponqb4sxnj73" width="4.861540" height="37.200000" rx="2.430770" ry="2.430770" transform="matrix(-1 0 0 1 1347.23000000000002 512.20000000000005)" fill="rgb(240,105,70)" stroke="none" stroke-width="1"/><rect id="eponqb4sxnj74" width="58.338500" height="56.400000" rx="9" ry="9" transform="matrix(1 0 0 1 1008.13999999999999 475)" fill="rgb(245,230,219)" stroke="none" stroke-width="1"/><ellipse id="eponqb4sxnj75" rx="4.762320" ry="4.604080" transform="matrix(1 0 0 1 1037.90000000000009 503.77600000000001)" fill="rgb(235,178,148)" stroke="none" stroke-width="1"/><rect id="eponqb4sxnj76" width="2.776330" height="9.254420" rx="1.388160" ry="1.388160" transform="matrix(0.71895100000000 -0.69506100000000 0.71895100000000 0.69506100000000 1023.62000000000000 491.89299999999997)" fill="rgb(235,178,148)" stroke="none" stroke-width="1"/><rect id="eponqb4sxnj77" width="2.776330" height="9.254420" rx="1.388160" ry="1.388160" transform="matrix(0.71895100000000 -0.69506100000000 0.71895100000000 0.69506100000000 1043.85999999999990 511.45999999999998)" fill="rgb(235,178,148)" stroke="none" stroke-width="1"/><rect id="eponqb4sxnj78" width="2.776330" height="9.254420" rx="1.388160" ry="1.388160" transform="matrix(-0.71895100000000 -0.69506100000000 0.71895100000000 -0.69506100000000 1045.84999999999991 498.32499999999999)" fill="rgb(235,178,148)" stroke="none" stroke-width="1"/><rect id="eponqb4sxnj79" width="2.776330" height="9.254420" rx="1.388160" ry="1.388160" transform="matrix(-0.71895100000000 -0.69506100000000 0.71895100000000 -0.69506100000000 1025.60999999999990 517.89300000000003)" fill="rgb(235,178,148)" stroke="none" stroke-width="1"/><rect id="eponqb4sxnj80" width="58.338500" height="56.400000" rx="9" ry="9" transform="matrix(1 0 0 1 1203.81999999999994 475)" fill="rgb(245,230,219)" stroke="none" stroke-width="1"/><ellipse id="eponqb4sxnj81" rx="4.762320" ry="4.604080" transform="matrix(1 0 0 1 1233.57999999999993 503.77600000000001)" fill="rgb(235,178,148)" stroke="none" stroke-width="1"/><rect id="eponqb4sxnj82" width="2.776330" height="9.254420" rx="1.388160" ry="1.388160" transform="matrix(0.71895100000000 -0.69506100000000 0.71895100000000 0.69506100000000 1219.28999999999996 491.89299999999997)" fill="rgb(235,178,148)" stroke="none" stroke-width="1"/><rect id="eponqb4sxnj83" width="2.776330" height="9.254420" rx="1.388160" ry="1.388160" transform="matrix(0.71895100000000 -0.69506100000000 0.71895100000000 0.69506100000000 1239.52999999999997 511.45999999999998)" fill="rgb(235,178,148)" stroke="none" stroke-width="1"/><rect id="eponqb4sxnj84" width="2.776330" height="9.254420" rx="1.388160" ry="1.388160" transform="matrix(-0.71895100000000 -0.69506100000000 0.71895100000000 -0.69506100000000 1241.52999999999997 498.32499999999999)" fill="rgb(235,178,148)" stroke="none" stroke-width="1"/><rect id="eponqb4sxnj85" width="2.776330" height="9.254420" rx="1.388160" ry="1.388160" transform="matrix(-0.71895100000000 -0.69506100000000 0.71895100000000 -0.69506100000000 1221.28999999999996 517.89300000000003)" fill="rgb(235,178,148)" stroke="none" stroke-width="1"/><rect id="eponqb4sxnj86" width="35.246200" height="14.400000" rx="7.200000" ry="7.200000" transform="matrix(1 0 0 1 921.84600000000000 652.60000000000002)" fill="rgb(56,12,12)" stroke="none" stroke-width="1"/><rect id="eponqb4sxnj87" width="35.246200" height="14.400000" rx="7.200000" ry="7.200000" transform="matrix(1 0 0 1 1307.11999999999989 652.60000000000002)" fill="rgb(56,12,12)" stroke="none" stroke-width="1"/></g></g><g id="eponqb4sxnj88_to" transform="translate(-64,533.500000)"><g id="eponqb4sxnj88" transform="translate(-290,-533.500000)"><path id="eponqb4sxnj89" d="M292,436L267.790000,436C262.514000,439.167000,253.823000,447.700000,261.272000,456.500000C268.721000,465.300000,277.412000,476.500000,280.826000,481C284.396000,485.333000,283.433000,500.600000,251.030000,527C219.836000,558,210.059000,610,240.322000,643L292,643L347.500000,643C380,610,369.500000,558,336,527C301.200000,500.600000,300.167000,485.333000,304,481C307.667000,476.500000,317,465.300000,325,456.500000C333,447.700000,323.667000,439.167000,318,436L292,436Z" clip-rule="evenodd" fill="rgb(97,174,186)" fill-rule="evenodd" stroke="none" stroke-width="1"/><path id="eponqb4sxnj90" d="M322.347000,439.070000L258.892000,446.191000C258.191000,448.378000,258.142000,450.754000,259.188000,453.202000L327.316000,445.556000C326.291000,443.067000,324.388000,440.845000,322.347000,439.070000ZM354.963000,550.783000L294.684000,569.798000L231.034000,555.443000C230.022000,557.596000,229.090000,559.780000,228.239000,561.989000L281.420000,573.983000L222.019000,592.721000C221.967000,595.159000,222.022000,597.590000,222.189000,600.008000L294.988000,577.043000L362.403000,592.247000C364.288000,592.672000,366.162000,591.489000,366.587000,589.603000C367.012000,587.717000,365.829000,585.844000,363.943000,585.419000L308.252000,572.858000L358.280000,557.077000C357.256000,554.948000,356.149000,552.848000,354.963000,550.783000ZM363.873000,616.117000L262.621000,642.686000C262.339000,642.760000,262.074000,642.866000,261.829000,643L289.004000,643L360.699000,624.187000C361.941000,621.549000,362.997000,618.855000,363.873000,616.117000Z" clip-rule="evenodd" fill="rgb(49,143,147)" fill-rule="evenodd" stroke="none" stroke-width="1"/><ellipse id="eponqb4sxnj91" rx="73" ry="53" transform="matrix(1 0 0 1 294 383)" fill="rgb(16,82,85)" stroke="none" stroke-width="1"/><ellipse id="eponqb4sxnj92" rx="73" ry="52" transform="matrix(0.99950400000000 -0.03148100000000 0.03148100000000 0.99950400000000 292.60089373599999 381.27188700699998)" fill="rgb(147,219,197)" stroke="none" stroke-width="1"/><ellipse id="eponqb4sxnj93" rx="48.500000" ry="53" transform="matrix(1 0 0 1 294.50000000000000 301)" fill="rgb(16,82,85)" stroke="none" stroke-width="1"/><ellipse id="eponqb4sxnj94" rx="47.706900" ry="54.149700" transform="matrix(0.99116100000000 0.13266300000000 -0.13266300000000 0.99116100000000 293.89793557799999 299.99989037399996)" fill="rgb(147,219,197)" stroke="none" stroke-width="1"/><ellipse id="eponqb4sxnj95" rx="27.500000" ry="33" transform="matrix(1 0 0 1 294.50000000000000 252)" fill="rgb(147,219,197)" stroke="none" stroke-width="1"/><rect id="eponqb4sxnj96" width="8" height="188" rx="4" ry="4" transform="matrix(1 0 0 1 290 260)" fill="rgb(51,142,146)" stroke="none" stroke-width="1"/><rect id="eponqb4sxnj97" width="8" height="44" rx="4" ry="4" transform="matrix(0.60140700000000 0.79894300000000 -0.79894300000000 0.60140700000000 325.15381067799990 366.99988122199994)" fill="rgb(51,142,146)" stroke="none" stroke-width="1"/><rect id="eponqb4sxnj98" width="45.582600" height="8" rx="4" ry="4" transform="matrix(0.60140700000000 0.79894300000000 -0.79894300000000 0.60140700000000 270.78763438499993 283.66829901699987)" fill="rgb(51,142,146)" stroke="none" stroke-width="1"/><rect id="eponqb4sxnj99" width="21.778900" height="8.580820" rx="4.290410" ry="4.290410" transform="matrix(0.25367200000000 0.96729000000000 -0.96729000000000 0.25367200000000 293.29984923000006 245.85317921600011)" fill="rgb(51,142,146)" stroke="none" stroke-width="1"/><rect id="eponqb4sxnj100" width="179" height="186" rx="0" ry="0" transform="matrix(1 0 0 1 199 662)" fill="rgb(240,105,70)" stroke="none" stroke-width="1"/><rect id="eponqb4sxnj101" width="178.888000" height="22" rx="0" ry="0" transform="matrix(0.99957500000000 -0.02915100000000 0.02915100000000 0.99957500000000 198.64197719900000 649.19900748299983)" fill="rgb(62,15,14)" stroke="none" stroke-width="1"/><rect id="eponqb4sxnj102" width="226" height="19" rx="9.500000" ry="9.500000" transform="matrix(1 0 0 1 177 643)" fill="rgb(240,105,70)" stroke="none" stroke-width="1"/><rect id="eponqb4sxnj103" width="141" height="150" rx="0" ry="0" transform="matrix(1 0 0 1 220 695)" fill="rgb(245,230,219)" stroke="none" stroke-width="1"/><rect id="eponqb4sxnj104" width="115" height="138" rx="0" ry="0" transform="matrix(1 0 0 1 233 704)" fill="rgb(149,16,0)" stroke="none" stroke-width="1"/></g></g><g id="eponqb4sxnj105_to" transform="translate(1736.632263,635.753342)"><g id="eponqb4sxnj105" transform="translate(-883.632019,-635.753342)"><path id="eponqb4sxnj106" d="M971.078000,613C1002.580000,625.500000,1064.240000,608.500000,1072.580000,580C1076.180000,569,1115.080000,529.500000,1119.080000,539C1125.080000,564.500000,1107.470000,598.219000,1084.580000,627C1067.080000,649,976.078000,750.500000,922.078000,745C921.578000,767.500000,922.478000,817.300000,922.078000,832.500000C921.678000,847.700000,904.245000,844.167000,897.078000,843C874.745000,840.833000,857.178000,839.800000,851.578000,839C845.978000,838.200000,845.245000,825.667000,845.578000,819.500000L845.578000,750C811.578000,730,805.412000,700,806.578000,687.500000L771.078000,694L771.078000,717L761.578000,702.500000L749.884000,713.220000C749.797000,714.026000,749.681000,713.963000,749.578000,713.500000L749.884000,713.220000C750.079000,711.415000,750.131000,705.259000,749.578000,689.500000C748.778000,666.700000,784.578000,661.333000,802.578000,661.500000C798.078000,647.500000,802.578000,571,797.578000,580C793.578000,587.200000,747.578000,585.667000,725.078000,584C698.078000,582.333000,644.678000,568,647.078000,524C649.478000,480,672.078000,448.333000,683.078000,438C691.578000,431,698.078000,422.200000,764.078000,431C877.578000,440,862.578000,465.500000,851.578000,539C842.778000,597.800000,859.745000,622.500000,868.578000,623.500000C890.078000,632.500000,939.004000,600.272000,971.078000,613Z" fill="rgb(240,105,70)" stroke="none" stroke-width="1"/><path id="eponqb4sxnj107" d="M845.578000,747.500000L800.078000,593C801.078000,608.667000,800.378000,648.400000,803.578000,688C806.778000,727.600000,834.078000,744.667000,845.578000,747.500000Z" fill="rgb(255,255,255)" stroke="none" stroke-width="1"/><path id="eponqb4sxnj108" d="M974.808000,726.359000C976.330000,724.159000,978.566000,724.191000,981.578000,724L974.808000,726.359000C972.172000,730.168000,971.675000,740.670000,972.993000,770.614000C975.591000,829.661000,977.540000,843.247000,967.796000,843.769000C960.001000,844.187000,932.070000,843.943000,919.078000,843.769000L924.275000,743.965000L974.808000,726.359000Z" fill="rgb(63,14,13)" stroke="none" stroke-width="1"/><g id="eponqb4sxnj109" mask="url(#eponqb4sxnj112)"><g id="eponqb4sxnj110"><path id="eponqb4sxnj111" d="M971.078000,613C1002.580000,625.500000,1064.240000,608.500000,1072.580000,580C1076.180000,569,1115.080000,529.500000,1119.080000,539C1125.080000,564.500000,1107.470000,598.219000,1084.580000,627C1067.080000,649,976.078000,750.500000,922.078000,745C921.578000,767.500000,922.478000,817.300000,922.078000,832.500000C921.678000,847.700000,904.245000,844.167000,897.078000,843C874.745000,840.833000,857.178000,839.800000,851.578000,839C845.978000,838.200000,845.245000,825.667000,845.578000,819.500000L845.578000,750C811.578000,730,805.412000,700,806.578000,687.500000L771.078000,694L771.078000,717L761.578000,702.500000L749.884000,713.220000C749.797000,714.026000,749.681000,713.963000,749.578000,713.500000L749.884000,713.220000C750.079000,711.415000,750.131000,705.259000,749.578000,689.500000C748.778000,666.700000,784.578000,661.333000,802.578000,661.500000C798.078000,647.500000,802.578000,571,797.578000,580C793.578000,587.200000,747.578000,585.667000,725.078000,584C698.078000,582.333000,644.678000,568,647.078000,524C649.478000,480,672.078000,448.333000,683.078000,438C691.578000,431,698.078000,422.200000,764.078000,431C877.578000,440,862.578000,465.500000,851.578000,539C842.778000,597.800000,859.745000,622.500000,868.578000,623.500000C890.078000,632.500000,939.004000,600.272000,971.078000,613Z" fill="rgb(149,16,0)" stroke="none" stroke-width="1"/></g><mask id="eponqb4sxnj112" mask-type="alpha"><path id="eponqb4sxnj113" d="M704.152000,430.686000C704.878000,422.434000,712.157000,416.333000,720.409000,417.059000C728.661000,417.785000,734.763000,425.063000,734.037000,433.315000L732.021000,456.227000C731.296000,464.479000,724.017000,470.581000,715.765000,469.855000C707.512000,469.129000,701.411000,461.850000,702.137000,453.598000L704.152000,430.686000ZM752.417000,435.899000C753.143000,427.647000,760.421000,421.545000,768.674000,422.271000C776.926000,422.997000,783.027000,430.275000,782.301000,438.528000L780.286000,461.439000C779.560000,469.692000,772.282000,475.793000,764.029000,475.067000C755.777000,474.341000,749.675000,467.063000,750.401000,458.810000L752.417000,435.899000ZM875.927000,530.304000C877.426000,522.156000,872.037000,514.336000,863.890000,512.836000L841.270000,508.672000C833.123000,507.172000,825.302000,512.561000,823.802000,520.709000C822.303000,528.856000,827.692000,536.677000,835.839000,538.176000L858.459000,542.340000C866.606000,543.840000,874.427000,538.451000,875.927000,530.304000ZM863.890000,557.836000C872.037000,559.336000,877.426000,567.156000,875.927000,575.304000C874.878000,580.999000,870.741000,585.346000,865.563000,586.935000C870.153000,586.940000,874.681000,589.044000,877.620000,593.017000C878.944000,594.808000,879.810000,596.796000,880.240000,598.842000C881.288000,591.581000,887.537000,586.001000,895.089000,586.003000C903.373000,586.005000,910.087000,592.722000,910.086000,601.006000L910.081000,624.006000C910.080000,632.290000,903.363000,639.005000,895.078000,639.003000C886.794000,639.001000,880.080000,632.284000,880.081000,624L880.085000,605.679000C879.257000,608.899000,877.359000,611.866000,874.478000,613.996000L855.985000,627.672000C849.324000,632.597000,839.931000,631.191000,835.006000,624.530000C830.080000,617.869000,831.487000,608.476000,838.147000,603.551000L856.640000,589.875000C858.048000,588.834000,859.578000,588.076000,861.162000,587.591000C860.270000,587.589000,859.367000,587.507000,858.459000,587.340000L835.839000,583.176000C827.692000,581.677000,822.303000,573.856000,823.802000,565.709000C825.302000,557.561000,833.123000,552.172000,841.270000,553.672000L863.890000,557.836000ZM937.097000,580.960000C928.813000,580.958000,922.096000,587.672000,922.094000,595.957000L922.090000,618.957000C922.088000,627.241000,928.803000,633.958000,937.087000,633.960000C945.371000,633.961000,952.088000,627.247000,952.090000,618.963000L952.094000,596.900000C952.364000,597.733000,952.710000,598.553000,953.137000,599.352000L963.960000,619.647000C967.858000,626.957000,976.944000,629.722000,984.254000,625.824000C991.563000,621.926000,994.329000,612.840000,990.431000,605.530000L989.289000,603.389000L1006.290000,618.731000C1012.440000,624.282000,1021.920000,623.796000,1027.470000,617.646000C1033.020000,611.497000,1032.540000,602.012000,1026.390000,596.461000L1009.310000,581.050000C1003.160000,575.500000,993.679000,575.985000,988.129000,582.135000C985.045000,585.552000,983.824000,589.998000,984.403000,594.227000L979.608000,585.235000C975.709000,577.926000,966.623000,575.160000,959.314000,579.058000C954.531000,581.609000,951.694000,586.380000,951.395000,591.421000C949.473000,585.356000,943.799000,580.961000,937.097000,580.960000Z" clip-rule="evenodd" fill="rgb(149,16,0)" fill-rule="evenodd" stroke="none" stroke-width="1"/></mask></g><ellipse id="eponqb4sxnj114" rx="14" ry="13" transform="matrix(1 0 0 1 802.07799999999997 482)" fill="rgb(255,255,255)" stroke="none" stroke-width="1"/><rect id="eponqb4sxnj115" width="5.197290" height="16.082900" rx="2.598650" ry="2.598650" transform="matrix(0.99246100000000 0.12256200000000 -0.12256200000000 0.99246100000000 795.56521809500020 475.88484051500006)" fill="rgb(0,0,0)" stroke="none" stroke-width="1"/><circle id="eponqb4sxnj116" r="10" transform="matrix(1 0 0 1 681.07799999999997 476)" fill="rgb(56,12,12)" stroke="none" stroke-width="1"/><path id="eponqb4sxnj117" d="M757.518000,561.423000C745.008000,568.372000,681.760000,555.388000,652.078000,548C651.948000,545.003000,649.187000,544.541000,650.078000,542C735.821000,561.903000,763.781000,559.650000,765.794000,556.059000C768.248000,554.952000,770.029000,554.474000,757.518000,561.423000Z" fill="rgb(0,0,0)" stroke="rgb(0,0,0)" stroke-width="1"/></g></g><g id="eponqb4sxnj118_to" transform="translate(-138,766.121063)"><g id="eponqb4sxnj118" transform="translate(-643,-766.121063)"><rect id="eponqb4sxnj119" width="196.217000" height="10" rx="5" ry="5" transform="matrix(0.64598800000000 -0.76334700000000 0.76334700000000 0.64598800000000 567.99956035399987 837.78202261600006)" fill="rgb(149,16,0)" stroke="none" stroke-width="1"/><path id="eponqb4sxnj120" d="M531,844C531,831.297000,541.297000,821,554,821L628,821C640.703000,821,651,831.297000,651,844L531,844Z" fill="rgb(70,17,15)" stroke="none" stroke-width="1"/><path id="eponqb4sxnj121" d="M586,844C586,831.297000,596.297000,821,609,821L628,821C640.703000,821,651,831.297000,651,844L586,844Z" fill="rgb(149,16,0)" stroke="none" stroke-width="1"/><rect id="eponqb4sxnj122" width="64" height="10" rx="5" ry="5" transform="matrix(1 0 0 1 691 690)" fill="rgb(149,16,0)" stroke="none" stroke-width="1"/><path id="eponqb4sxnj123" d="M691,707C662,841.500000,616,796,616,796L691,707Z" fill="rgb(149,16,0)" stroke="rgb(149,16,0)" stroke-width="1"/><path id="eponqb4sxnj124" d="M675.500000,760C654.620000,822.779000,622,800,622,800L675.500000,760Z" fill="rgb(70,17,15)" stroke="rgb(70,17,15)" stroke-width="1"/></g></g></g></svg>