<svg width="232" height="165" viewBox="0 0 232 165" fill="none" xmlns="http://www.w3.org/2000/svg">
<g filter="url(#filter0_d)">
<rect x="41" y="149.782" width="196.217" height="10" rx="5" transform="rotate(-49.7602 41 149.782)" fill="#951000"/>
<path d="M4 156C4 143.297 14.2975 133 27 133H101C113.703 133 124 143.297 124 156H4Z" fill="#46110F"/>
<path d="M59 156C59 143.297 69.2975 133 82 133H101C113.703 133 124 143.297 124 156H59Z" fill="#951000"/>
<rect x="164" y="1.99998" width="64" height="10" rx="5" fill="#951000"/>
<path d="M164 19C135 153.5 89 108 89 108L164 19Z" fill="#951000" stroke="#951000"/>
<path d="M148.5 72C127.62 134.779 95 112 95 112L148.5 72Z" fill="#46110F" stroke="#46110F"/>
</g>
<defs>
<filter id="filter0_d" x="0" y="1.52588e-05" width="232" height="164.241" filterUnits="userSpaceOnUse" color-interpolation-filters="sRGB">
<feFlood flood-opacity="0" result="BackgroundImageFix"/>
<feColorMatrix in="SourceAlpha" type="matrix" values="0 0 0 0 0 0 0 0 0 0 0 0 0 0 0 0 0 0 127 0"/>
<feOffset dy="4"/>
<feGaussianBlur stdDeviation="2"/>
<feColorMatrix type="matrix" values="0 0 0 0 0 0 0 0 0 0 0 0 0 0 0 0 0 0 0.25 0"/>
<feBlend mode="normal" in2="BackgroundImageFix" result="effect1_dropShadow"/>
<feBlend mode="normal" in="SourceGraphic" in2="effect1_dropShadow" result="shape"/>
</filter>
</defs>
</svg>
