<svg width="480" height="435" viewBox="0 0 480 435" fill="none" xmlns="http://www.w3.org/2000/svg">
<g filter="url(#filter0_d)">
<path d="M327.078 196C358.578 208.5 420.245 191.5 428.578 163C432.185 152 471.078 112.5 475.078 122C481.078 147.5 463.472 181.219 440.578 210C423.078 232 332.078 333.5 278.078 328C277.578 350.5 278.478 400.3 278.078 415.5C277.678 430.7 260.245 427.167 253.078 426C230.745 423.833 213.178 422.8 207.578 422C201.978 421.2 201.245 408.667 201.578 402.5V333C167.578 313 161.412 283 162.578 270.5L127.078 277V300L117.578 285.5L105.884 296.22C105.797 297.026 105.681 296.963 105.578 296.5L105.884 296.22C106.079 294.415 106.131 288.259 105.578 272.5C104.778 249.7 140.578 244.333 158.578 244.5C154.078 230.5 158.578 154 153.578 163C149.578 170.2 103.578 168.667 81.0783 167C54.0783 165.333 0.678257 151 3.07826 107C5.47826 63 28.0782 31.3333 39.0782 21C47.5783 14 54.0783 5.20001 120.078 14C233.578 23 218.578 48.5 207.578 122C198.778 180.8 215.745 205.5 224.578 206.5C246.078 215.5 295.004 183.272 327.078 196Z" fill="#F06946"/>
<path d="M201.578 330.5L156.078 176C157.078 191.667 156.378 231.4 159.578 271C162.778 310.6 190.078 327.667 201.578 330.5Z" fill="white"/>
<path d="M330.808 309.359C332.33 307.159 334.566 307.191 337.578 307L330.808 309.359C328.172 313.168 327.675 323.67 328.993 353.614C331.591 412.661 333.54 426.247 323.796 426.769C316.001 427.187 288.07 426.943 275.078 426.769L280.275 326.965L330.808 309.359Z" fill="#3F0E0D"/>
<mask id="mask0" mask-type="alpha" maskUnits="userSpaceOnUse" x="58" y="0" width="330" height="223">
<path fill-rule="evenodd" clip-rule="evenodd" d="M60.1523 13.6865C60.8783 5.43407 68.1567 -0.66733 76.4091 0.0586142C84.6615 0.784558 90.7629 8.06295 90.0369 16.3153L88.0215 39.2269C87.2955 47.4793 80.0171 53.5807 71.7647 52.8547C63.5123 52.1288 57.4109 44.8504 58.1369 36.598L60.1523 13.6865ZM108.417 18.899C109.143 10.6466 116.421 4.54516 124.674 5.27111C132.926 5.99705 139.027 13.2754 138.301 21.5278L136.286 44.4394C135.56 52.6918 128.282 58.7932 120.029 58.0672C111.777 57.3413 105.675 50.0629 106.401 41.8105L108.417 18.899ZM231.927 113.304C233.426 105.156 228.037 97.3356 219.89 95.8359L197.27 91.6721C189.123 90.1724 181.302 95.5614 179.802 103.709C178.303 111.856 183.692 119.677 191.839 121.176L214.459 125.34C222.606 126.84 230.427 121.451 231.927 113.304ZM219.89 140.836C228.037 142.336 233.426 150.156 231.927 158.304C230.878 163.999 226.741 168.346 221.563 169.935C226.153 169.94 230.681 172.044 233.62 176.017C234.944 177.808 235.81 179.796 236.24 181.842C237.288 174.581 243.537 169.001 251.089 169.003C259.373 169.005 266.087 175.722 266.086 184.006L266.081 207.006C266.08 215.29 259.363 222.005 251.078 222.003C242.794 222.001 236.08 215.284 236.081 207L236.085 188.679C235.257 191.899 233.359 194.866 230.478 196.996L211.985 210.672C205.324 215.597 195.931 214.191 191.006 207.53C186.08 200.869 187.487 191.476 194.147 186.551L212.64 172.875C214.048 171.834 215.578 171.076 217.162 170.591C216.27 170.589 215.367 170.507 214.459 170.34L191.839 166.176C183.692 164.677 178.303 156.856 179.802 148.709C181.302 140.561 189.123 135.172 197.27 136.672L219.89 140.836ZM293.097 163.96C284.813 163.958 278.096 170.672 278.094 178.957L278.09 201.957C278.088 210.241 284.803 216.958 293.087 216.96C301.371 216.961 308.088 210.247 308.09 201.963L308.094 179.9C308.364 180.733 308.71 181.553 309.137 182.352L319.96 202.647C323.858 209.957 332.944 212.722 340.254 208.824C347.563 204.926 350.329 195.84 346.431 188.53L345.289 186.389L362.287 201.731C368.437 207.282 377.922 206.796 383.472 200.646C389.023 194.497 388.538 185.012 382.388 179.461L365.314 164.05C359.164 158.5 349.679 158.985 344.129 165.135C341.045 168.552 339.824 172.998 340.403 177.227L335.608 168.235C331.709 160.926 322.623 158.16 315.314 162.058C310.531 164.609 307.694 169.38 307.395 174.421C305.473 168.356 299.799 163.961 293.097 163.96Z" fill="#951000"/>
</mask>
<g mask="url(#mask0)">
<path d="M327.078 196C358.578 208.5 420.245 191.5 428.578 163C432.185 152 471.078 112.5 475.078 122C481.078 147.5 463.472 181.219 440.578 210C423.078 232 332.078 333.5 278.078 328C277.578 350.5 278.478 400.3 278.078 415.5C277.678 430.7 260.245 427.167 253.078 426C230.745 423.833 213.178 422.8 207.578 422C201.978 421.2 201.245 408.667 201.578 402.5V333C167.578 313 161.412 283 162.578 270.5L127.078 277V300L117.578 285.5L105.884 296.22C105.797 297.026 105.681 296.963 105.578 296.5L105.884 296.22C106.079 294.415 106.131 288.259 105.578 272.5C104.778 249.7 140.578 244.333 158.578 244.5C154.078 230.5 158.578 154 153.578 163C149.578 170.2 103.578 168.667 81.0783 167C54.0783 165.333 0.678257 151 3.07826 107C5.47826 63 28.0782 31.3333 39.0782 21C47.5783 14 54.0783 5.20001 120.078 14C233.578 23 218.578 48.5 207.578 122C198.778 180.8 215.745 205.5 224.578 206.5C246.078 215.5 295.004 183.272 327.078 196Z" fill="#951000"/>
</g>
<ellipse cx="158.078" cy="65" rx="14" ry="13" fill="white"/>
<rect x="151.565" y="58.8845" width="5.19729" height="16.0829" rx="2.59865" transform="rotate(7.04 151.565 58.8845)" fill="black"/>
<circle cx="37.0782" cy="59" r="10" fill="#380C0C"/>
<path d="M113.518 144.423C101.008 151.372 37.7596 138.388 8.07827 131C7.94823 128.003 5.18749 127.541 6.07827 125C91.8212 144.903 119.781 142.65 121.794 139.059C124.248 137.952 126.029 137.474 113.518 144.423Z" fill="black" stroke="black"/>
</g>
<defs>
<filter id="filter0_d" x="0" y="10.3082" width="479.263" height="423.89" filterUnits="userSpaceOnUse" color-interpolation-filters="sRGB">
<feFlood flood-opacity="0" result="BackgroundImageFix"/>
<feColorMatrix in="SourceAlpha" type="matrix" values="0 0 0 0 0 0 0 0 0 0 0 0 0 0 0 0 0 0 127 0"/>
<feOffset dy="4"/>
<feGaussianBlur stdDeviation="1.5"/>
<feColorMatrix type="matrix" values="0 0 0 0 0 0 0 0 0 0 0 0 0 0 0 0 0 0 0.25 0"/>
<feBlend mode="normal" in2="BackgroundImageFix" result="effect1_dropShadow"/>
<feBlend mode="normal" in="SourceGraphic" in2="effect1_dropShadow" result="shape"/>
</filter>
</defs>
</svg>
